<svg id="SvgjsSvg1032" width="288" height="288" xmlns="http://www.w3.org/2000/svg" version="1.1" xmlns:xlink="http://www.w3.org/1999/xlink" xmlns:svgjs="http://svgjs.com/svgjs"><defs id="SvgjsDefs1033"></defs><g id="SvgjsG1034"><svg xmlns="http://www.w3.org/2000/svg" width="288" height="288" enable-background="new 0 0 100 100" viewBox="0 0 100 100"><path fill="#b3ccff" d="M34.671 54.558l-2.158 12.264 3.572.821 2.985-10.838C37.528 56.193 36.056 55.439 34.671 54.558zM58.041 56.916l2.938 10.728 3.568-.821-2.113-12.067C61.051 55.606 59.582 56.329 58.041 56.916zM50.219 58.604c-.505.028-1.007.042-1.506.042-2.79 0-5.48-.445-8.01-1.259l-1.848 36.436h5.054l4.633-29.004 4.633 29.004h5.054l-1.844-36.337C54.419 58.087 52.359 58.483 50.219 58.604zM22.542 33.897c-.022-.393-.032-.783-.036-1.172h-6.518c-2.938 0-5.39 2.095-5.912 4.852l-3.9 22.162 3.052.701 4.292-15.576-1.925 37.943h4.317L19.87 58.03l3.958 24.777h4.317l-1.87-36.84C24.128 42.415 22.792 38.31 22.542 33.897zM26.729 46.692l3.766 13.748 3.049-.701-1.2-6.849C30.162 51.14 28.262 49.049 26.729 46.692zM23.882 24.033c.09-.681.168-1.354.197-1.812.141-2.212-1.798-4.014-4.014-4.014-2.219 0-4.155 1.802-4.014 4.014.061.953.289 2.854.485 3.788.416 1.987 1.58 3.527 3.528 3.527 1.25 0 2.219-.685 2.836-1.667C23.133 26.556 23.461 25.275 23.882 24.033zM69.82 51.068l1.441-5.233c-.82 1.372-1.771 2.657-2.822 3.854L69.82 51.068zM67.819 57.476c-.876-1.001-.824-2.539.126-3.49l.416-.417-1.886-1.885c-.343.315-.678.639-1.037.937l-1.253 7.118 3.053.701.759-2.756L67.819 57.476z" class="colorB3CCFF svgShape"></path><polygon fill="#b3ccff" points="70.718 60.864 69.604 82.807 73.922 82.807 76.371 67.474" class="colorB3CCFF svgShape"></polygon><path fill="#b3ccff" d="M85.605 76.973c-.697 0-1.361-.305-1.824-.835l-3.7-4.326 1.757 10.996h4.318l-.297-5.859C85.774 76.957 85.691 76.973 85.605 76.973zM85.9 34.392c-2.293 1.551-5.059 2.457-8.035 2.457-1.111 0-2.189-.139-3.229-.378-.5 3.198-1.574 6.22-3.135 8.942l-.271 5.335c.946-.719 2.374-.698 3.262.093l10.506 9.17-.771-15.188 4.275 15.616 3.049-.701-3.883-22.18C87.431 36.32 86.787 35.23 85.9 34.392z" class="colorB3CCFF svgShape"></path><path fill="#ffffff" d="M63.504,22.485c0-2.441,0.613-4.737,1.688-6.75c0,0-0.002,0.002-0.002,0.003
		c-4.239-4.186-10.052-6.762-16.435-6.762c-0.447,0-0.896,0.013-1.348,0.039c-12.899,0.732-22.801,11.823-22.07,24.724
		c0.729,12.844,11.76,22.82,24.724,22.07c11.376-0.646,20.415-9.35,21.891-20.245c0,0,0.001,0,0.002,0
		C66.974,33.309,63.504,28.307,63.504,22.485z" class="colorFFF svgShape"></path><polygon fill="#ffffff" points="90.844 68.829 72.807 53.085 70.08 55.812 85.631 73.991" class="colorFFF svgShape"></polygon><path fill="#494949" d="M92.999,66.994L74.493,50.841c-0.965-0.86-2.574-0.821-3.503,0.101l-0.648,0.649l-1.896-1.896
		c3.217-3.669,5.417-8.23,6.2-13.222c-0.938-0.215-1.838-0.521-2.695-0.91c-1.476,10.895-10.515,19.599-21.891,20.245
		c-12.964,0.75-23.994-9.226-24.724-22.07c-0.73-12.901,9.171-23.992,22.07-24.724c0.452-0.026,0.9-0.039,1.348-0.039
		c6.383,0,12.195,2.576,16.435,6.762c0.448-0.84,0.975-1.632,1.574-2.362c-5.052-4.786-11.985-7.58-19.515-7.157
		c-14.441,0.82-25.525,13.236-24.707,27.679c0.787,13.878,12.283,24.75,26.171,24.75c0.499,0,1.001-0.014,1.506-0.042
		c6.301-0.358,11.962-2.924,16.274-6.903l1.868,1.868l-0.416,0.417c-0.95,0.951-1.002,2.489-0.126,3.49l15.962,18.661
		c0.463,0.531,1.127,0.835,1.824,0.835c0.642,0,1.248-0.251,1.708-0.707l5.791-5.735c0.474-0.471,0.735-1.12,0.719-1.78
		C93.807,68.09,93.512,67.455,92.999,66.994z M85.631,73.991L70.08,55.812l2.727-2.727l18.037,15.744L85.631,73.991z" class="color494949 svgShape"></path><path fill="#6666ff" d="M57.559 25.472c.32-5.001-4.062-9.075-9.073-9.075-5.013 0-9.393 4.074-9.072 9.075.137 2.154.654 6.449 1.097 8.563.941 4.493 3.573 7.976 7.976 7.976 4.408 0 7.294-3.749 7.976-7.976C56.803 31.905 57.422 27.626 57.559 25.472zM66.195 48.021c-3.357-1.456-7.827-2.493-12.865-2.898l-2.544 3.841 2.067 6.511C58.143 54.534 62.788 51.833 66.195 48.021zM44.181 45.097c-5.071.379-9.576 1.4-12.982 2.842 3.448 3.892 8.157 6.62 13.454 7.551l2.074-6.525L44.181 45.097z" class="color4080FF svgShape"></path><circle cx="77.866" cy="22.485" r="14.362" fill="#6666ff" class="color4080FF svgShape"></circle><polygon fill="#ffffff" points="77.687 30.506 70.345 24.471 72.886 21.381 76.782 24.584 83.142 14.871 86.487 17.062" class="colorFFF svgShape"></polygon></svg></g></svg>